<?xml version="1.0" encoding="utf-8"?>
<!-- Generator: Adobe Illustrator 25.0.0, SVG Export Plug-In . SVG Version: 6.00 Build 0)  -->
<svg version="1.1" id="Layer_1" xmlns="http://www.w3.org/2000/svg" xmlns:xlink="http://www.w3.org/1999/xlink" x="0px" y="0px"
	 viewBox="0 0 48 48" style="enable-background:new 0 0 48 48;" xml:space="preserve">
<style type="text/css">
	.st0{fill:none;stroke:#FFFFFF;stroke-width:1.5;stroke-miterlimit:10;}
</style>
<path class="st0" d="M26.8,46V34l-5.4-5l-2.1,9.4L6,35.7l0.6-2.8l9.9,2l3.6-18.5l-5,2.4v6.7h-3v-8.8l8.2-3.4
	c1.1-0.5,1.8-0.8,2.3-0.9c0.5-0.1,0.9-0.2,1.4-0.2c0.7,0,1.3,0.1,1.8,0.4s1,0.7,1.3,1.3l2.1,3.3c0.9,1.4,2,2.6,3.5,3.6
	s3.2,1.5,5.2,1.5v3c-2.2,0-4.2-0.5-6-1.5s-3.4-2.6-4.9-4.6l-2,7.9l4.5,4.2V46H26.8z M27,10.3c-1,0-1.9-0.4-2.6-1.1
	c-0.7-0.7-1.1-1.6-1.1-2.6s0.4-1.9,1.1-2.6S26,3,27,3s1.9,0.4,2.6,1.1c0.7,0.7,1.1,1.6,1.1,2.6s-0.4,1.9-1.1,2.6
	C28.9,9.9,28,10.3,27,10.3z"/>
</svg>
